<svg aria-hidden="true" style="width:0;height:0;position:absolute;overflow:hidden" xmlns="http://www.w3.org/2000/svg"><defs><symbol id="icon-logo" viewBox="0 0 32 32"><path fill="none" stroke="#fff" style="stroke:var(--color1,#fff)" stroke-linejoin="round" stroke-linecap="round" stroke-width="2.667" d="M26.427 2.667H5.574a2.907 2.907 0 0 0-2.907 2.907v20.853a2.907 2.907 0 0 0 2.907 2.907v0h20.853a2.907 2.907 0 0 0 2.907-2.907v0V5.574a2.907 2.907 0 0 0-2.907-2.907v0zm-17.094 0v26.667M22.667 2.667v26.667M2.667 16h26.667M2.667 9.333h6.667M2.667 22.667h6.667m13.333 0h6.667M22.667 9.333h6.667"/></symbol><symbol id="icon-search" viewBox="0 0 32 32"><path fill="none" stroke="#fff" style="stroke:var(--color1,#fff)" stroke-linejoin="round" stroke-linecap="round" stroke-width="2.667" d="M14.667 25.333c5.891 0 10.667-4.776 10.667-10.667S20.558 3.999 14.667 3.999v0C8.776 3.999 4 8.775 4 14.666s4.776 10.667 10.667 10.667v0zM28 28l-5.8-5.8"/></symbol><symbol id="icon-cursor" viewBox="0 0 26 32"><path fill="#ff001b" style="fill:var(--color1,#ff001b)" d="M9.818 0c.602 0 1.091.488 1.091 1.091v3.636a1.09 1.09 0 1 1-2.182 0V1.091A1.09 1.09 0 0 1 9.818 0zM2.865 2.865a1.088 1.088 0 0 1 1.542 0L6.952 5.41A1.09 1.09 0 1 1 5.41 6.952l-.001-.001-2.545-2.545a1.088 1.088 0 0 1 0-1.542zm13.906 0a1.088 1.088 0 0 1 0 1.542l-2.545 2.545a1.091 1.091 0 1 1-1.542-1.542l.001-.001 2.545-2.545a1.088 1.088 0 0 1 1.542 0zM0 9.818c0-.602.488-1.091 1.091-1.091h3.636a1.09 1.09 0 1 1 0 2.182H1.091A1.09 1.09 0 0 1 0 9.818zm11.892-.384a1.92 1.92 0 0 0-3.165 1.455v16.399a1.92 1.92 0 0 0 3.347 1.282l.002-.002 3.802-4.247a2.223 2.223 0 0 1 1.561-.739h.005l5.585-.224a1.921 1.921 0 0 0 1.175-3.372l-.002-.002L11.897 9.439zm-.983 17.164V11.462l11.363 9.745-4.916.195a4.393 4.393 0 0 0-3.1 1.459l-.004.004-3.343 3.732z"/></symbol><symbol id="icon-heart" viewBox="0 0 32 32"><path fill="#FF6B08" d="M23.6 2c-3.363 0-6.258 2.736-7.599 5.594C14.659 4.736 11.764 2 8.4 2 3.763 2 0 5.764 0 10.401c0 9.433 9.516 11.906 16.001 21.232C22.131 22.365 32 19.533 32 10.401 32 5.764 28.237 2 23.6 2z"/></symbol><symbol id="icon-close" viewBox="0 0 32 32"><path d="M22.72 24.213 16 17.493l-6.72 6.72-1.493-1.493 6.72-6.72-6.72-6.72L9.28 7.787l6.72 6.72 6.72-6.72 1.493 1.493-6.72 6.72 6.72 6.72z"/></symbol><symbol id="up" viewBox="0 0 32 32"><path style="fill:currentColor" d="M0 16c0 8.837 7.163 16 16 16s16-7.163 16-16S24.837 0 16 0 0 7.163 0 16zm29 0c0 7.18-5.82 13-13 13S3 23.18 3 16 8.82 3 16 3s13 5.82 13 13z"/><path style="fill:currentColor" d="m22.086 20.914 2.829-2.829-8.914-8.914-8.914 8.914 2.828 2.828 6.086-6.086z"/></symbol></defs></svg>