<svg aria-hidden="true" style="width:0;height:0;position:absolute;overflow:hidden" xmlns="http://www.w3.org/2000/svg"><defs><symbol id="icon-logo" viewBox="0 0 32 32"><path fill="none" stroke="#fff" style="stroke:var(--color1,#fff)" stroke-linejoin="round" stroke-linecap="round" stroke-width="2.667" d="M26.427 2.667H5.574a2.907 2.907 0 0 0-2.907 2.907v20.853a2.907 2.907 0 0 0 2.907 2.907v0h20.853a2.907 2.907 0 0 0 2.907-2.907v0V5.574a2.907 2.907 0 0 0-2.907-2.907v0zm-17.094 0v26.667M22.667 2.667v26.667M2.667 16h26.667M2.667 9.333h6.667M2.667 22.667h6.667m13.333 0h6.667M22.667 9.333h6.667"/></symbol><symbol id="icon-search" viewBox="0 0 32 32"><path fill="none" stroke="#fff" style="stroke:var(--color1,#fff)" stroke-linejoin="round" stroke-linecap="round" stroke-width="2.667" d="M14.667 25.333c5.891 0 10.667-4.776 10.667-10.667S20.558 3.999 14.667 3.999v0C8.776 3.999 4 8.775 4 14.666s4.776 10.667 10.667 10.667v0zM28 28l-5.8-5.8"/></symbol><symbol id="icon-cursor" viewBox="0 0 26 32"><path fill="#ff001b" style="fill:var(--color1,#ff001b)" d="M9.818 0c.602 0 1.091.488 1.091 1.091v3.636a1.09 1.09 0 1 1-2.182 0V1.091A1.09 1.09 0 0 1 9.818 0zM2.865 2.865a1.088 1.088 0 0 1 1.542 0L6.952 5.41A1.09 1.09 0 1 1 5.41 6.952l-.001-.001-2.545-2.545a1.088 1.088 0 0 1 0-1.542zm13.906 0a1.088 1.088 0 0 1 0 1.542l-2.545 2.545a1.091 1.091 0 1 1-1.542-1.542l.001-.001 2.545-2.545a1.088 1.088 0 0 1 1.542 0zM0 9.818c0-.602.488-1.091 1.091-1.091h3.636a1.09 1.09 0 1 1 0 2.182H1.091A1.09 1.09 0 0 1 0 9.818zm11.892-.384a1.92 1.92 0 0 0-3.165 1.455v16.399a1.92 1.92 0 0 0 3.347 1.282l.002-.002 3.802-4.247a2.223 2.223 0 0 1 1.561-.739h.005l5.585-.224a1.921 1.921 0 0 0 1.175-3.372l-.002-.002L11.897 9.439zm-.983 17.164V11.462l11.363 9.745-4.916.195a4.393 4.393 0 0 0-3.1 1.459l-.004.004-3.343 3.732z"/></symbol><symbol id="icon-heart" viewBox="0 0 32 32"><path fill="#FF6B08" d="M23.6 2c-3.363 0-6.258 2.736-7.599 5.594C14.659 4.736 11.764 2 8.4 2 3.763 2 0 5.764 0 10.401c0 9.433 9.516 11.906 16.001 21.232C22.131 22.365 32 19.533 32 10.401 32 5.764 28.237 2 23.6 2z"/></symbol><symbol id="icon-list" viewBox="0 0 32 32"><path d="M0 0h8v8H0zm12 2h20v4H12zM0 12h8v8H0zm12 2h20v4H12zM0 24h8v8H0zm12 2h20v4H12z"/></symbol><symbol id="icon-filter" viewBox="0 0 36 32"><path fill="none" stroke="#fff" style="stroke:var(--color1,#fff)" stroke-linejoin="round" stroke-linecap="round" stroke-width="2.032" d="M33.841 5.397H11.492m-4.064 0H1.333m32.508 20.318H11.492m-4.064 0H1.333m22.35-10.16H1.334m32.507 0h-6.096M9.46 1.333h.001c1.122 0 2.032.91 2.032 2.032v4.061a2.032 2.032 0 0 1-4.064 0v0-4.061c0-1.122.909-2.031 2.031-2.032h0zm0 20.318c1.122 0 2.032.91 2.032 2.032v4.063a2.032 2.032 0 0 1-4.064 0v0-4.063c0-1.122.91-2.032 2.032-2.032v0zm16.253-10.159c1.122 0 2.032.91 2.032 2.032v4.063l.001.052a2.032 2.032 0 0 1-4.064 0l.001-.055v.003-4.063c0-1.122.91-2.032 2.032-2.032v0z"/></symbol><symbol id="icon-close" viewBox="0 0 32 32"><path d="M23.733 10.304 22.229 8.8l-5.963 5.963L10.303 8.8l-1.504 1.504 5.963 5.963-5.963 5.963 1.504 1.504 5.963-5.963 5.963 5.963 1.504-1.504-5.963-5.963 5.963-5.963z"/></symbol><symbol id="up" viewBox="0 0 32 32"><path style="fill:currentColor" d="M0 16c0 8.837 7.163 16 16 16s16-7.163 16-16S24.837 0 16 0 0 7.163 0 16zm29 0c0 7.18-5.82 13-13 13S3 23.18 3 16 8.82 3 16 3s13 5.82 13 13z"/><path style="fill:currentColor" d="m22.086 20.914 2.829-2.829-8.914-8.914-8.914 8.914 2.828 2.828 6.086-6.086z"/></symbol><symbol id="email-team" viewBox="0 0 32 32"><path d="M26.71 26.66H5.29a4.255 4.255 0 0 1-4.25-4.25V9.59a4.255 4.255 0 0 1 4.25-4.25h21.42a4.255 4.255 0 0 1 4.25 4.25v12.82a4.255 4.255 0 0 1-4.25 4.25zM5.29 6.84a2.75 2.75 0 0 0-2.75 2.75v12.82a2.75 2.75 0 0 0 2.75 2.75h21.42a2.75 2.75 0 0 0 2.75-2.75V9.59a2.75 2.75 0 0 0-2.75-2.75z"/><path d="M16 19.04h-.007a4.234 4.234 0 0 1-2.569-.863l.011.008L1.76 9.355a.75.75 0 1 1 .906-1.194l-.001-.001L14.34 17c.457.344 1.034.551 1.66.551s1.203-.207 1.667-.556L17.66 17l11.675-8.84a.75.75 0 1 1 .907 1.193l-.002.002-11.675 8.83a4.222 4.222 0 0 1-2.558.855H16z"/><path d="M2.085 24.57h-.001a.75.75 0 0 1-.5-1.309l.001-.001 9.2-8.205a.75.75 0 1 1 1.001 1.119l-.001.001-9.2 8.205a.726.726 0 0 1-.491.19h-.009zm27.83 0h-.009a.726.726 0 0 1-.492-.191h.001l-9.2-8.205a.75.75 0 1 1 1.001-1.12l-.001-.001 9.195 8.205a.75.75 0 0 1-.499 1.31h-.001z"/></symbol><symbol id="git-team" viewBox="0 0 33 32"><path d="M15.383.057c-1.457.113-2.39.277-3.577.617a16.192 16.192 0 0 0-6.127 3.317c-.507.43-1.47 1.41-1.9 1.927-2.133 2.577-3.37 5.563-3.72 8.983-.057.547-.057 2.353 0 2.917.353 3.573 1.717 6.733 4.043 9.367.403.46 1.277 1.313 1.713 1.68a16.49 16.49 0 0 0 4.7 2.77c.857.323.817.313 1.383.313.473 0 .54-.007.783-.09.367-.12.653-.3.913-.56.263-.263.44-.55.563-.913l.09-.267.017-2.617c.02-2.86.013-2.733.217-3.133.11-.21.17-.273 1.027-1.05.683-.617.77-.683.817-.64.033.027.42.357.863.737.827.703.937.813 1.027 1.03.167.397.163.347.183 3.04.023 2.84.013 2.72.273 3.25.207.413.567.77.997.977.42.203.76.273 1.237.247.31-.017.42-.04.807-.17 3.303-1.12 6.333-3.497 8.293-6.503 1.473-2.26 2.317-4.693 2.6-7.517.053-.533.053-2.25 0-2.817-.2-2.073-.72-3.95-1.59-5.733a15.732 15.732 0 0 0-3.013-4.263c-.913-.927-1.66-1.55-2.653-2.203-2.41-1.59-5.01-2.473-7.9-2.683-.423-.03-1.737-.037-2.067-.01zm2.684 1.656c2.9.363 5.46 1.47 7.733 3.347a19.11 19.11 0 0 1 1.853 1.857 14.723 14.723 0 0 1 3.38 8.33c.043.553.043 1.69 0 2.24-.377 4.783-3.003 9.027-7.133 11.53-.737.447-1.817.957-2.603 1.233-.303.107-.38.12-.6.11-.303-.013-.487-.113-.603-.337l-.077-.14-.02-2.5c-.017-2.363-.023-2.517-.087-2.8a4.094 4.094 0 0 0-.317-.93c-.11-.22-.43-.663-.533-.733-.06-.043-.05-.05.113-.07 4.017-.497 5.993-2.26 6.483-5.783.043-.313.057-.647.057-1.333 0-.87-.003-.937-.087-1.337a5.75 5.75 0 0 0-1.2-2.52l-.197-.243.083-.257c.153-.493.197-.883.177-1.587-.02-.69-.067-.987-.257-1.6-.143-.46-.157-.48-.383-.507-.677-.087-2.213.517-3.597 1.407l-.227.147-.49-.117a13.753 13.753 0 0 0-6.473.017l-.42.1-.313-.193c-1.397-.87-2.57-1.347-3.357-1.357-.413-.003-.397-.017-.543.457-.36 1.15-.377 2.363-.05 3.33l.053.157-.223.277c-.6.747-.99 1.573-1.183 2.53-.07.347-.077.463-.073 1.33 0 .81.013 1.02.077 1.433.15.973.323 1.547.687 2.283.557 1.12 1.337 1.893 2.5 2.473.863.433 1.777.687 3.14.88l.277.037-.177.193c-.33.367-.583.907-.707 1.517-.03.147-.07.277-.093.29s-.197.077-.39.14c-.913.303-1.81.283-2.477-.053-.54-.27-.9-.62-1.363-1.33-.497-.753-.96-1.133-1.7-1.39-.293-.103-.39-.12-.643-.12-.44-.003-.583.053-.583.24 0 .18.33.517.733.747.083.05.27.21.41.36.397.413.747.977 1.04 1.683.087.203.19.427.233.503.417.713 1.237 1.173 2.373 1.333.47.067 1.617.047 2.077-.037.157-.027.287-.05.293-.05.003 0 .007.66.007 1.467 0 1.58-.003 1.607-.177 1.797-.21.227-.617.267-1.067.107a14.83 14.83 0 0 1-8.65-8.12c-.623-1.46-1-3-1.14-4.633a19.986 19.986 0 0 1 0-2.27c.257-3.26 1.52-6.227 3.703-8.7 2.39-2.703 5.897-4.5 9.447-4.843.203-.02.413-.043.467-.05.057-.007.61-.01 1.233-.003.81.007 1.26.023 1.583.063zm-7.694 8.054c.563.28.977.52 1.553.907l.443.297.473-.133c1.353-.383 2.483-.53 3.807-.493 1.093.03 1.943.16 3.107.477l.543.147.523-.347c.813-.537 2.003-1.17 2.07-1.103.013.013.023.22.023.46-.003.553-.053.787-.33 1.477l-.213.527.403.437c.507.547.753.88.94 1.263.317.653.417 1.143.417 2.02 0 1.273-.193 2.26-.607 3.08-.197.39-.37.633-.673.95-.613.633-1.357 1.017-2.537 1.307-.503.123-1.207.223-2.763.397l-1.227.137-1.39-.153c-1.913-.21-2.43-.3-3.22-.55-2.173-.693-3.18-2.32-3.19-5.15-.007-.893.123-1.48.46-2.113.21-.4.38-.623.86-1.143.23-.25.42-.47.42-.49 0-.017-.097-.277-.217-.577a5.094 5.094 0 0 1-.267-.84c-.05-.293-.07-.9-.03-1 .027-.073.07-.057.62.213z"/></symbol><symbol id="linkedin-team" viewBox="0 0 32 32"><path d="M10.001 12H4.667a.667.667 0 0 0-.667.666v16.001c0 .368.298.666.666.667H10a.667.667 0 0 0 .667-.666V12.667a.667.667 0 0 0-.666-.667zm-.668 16h-4V13.333h4V28zM24 12a6.57 6.57 0 0 0-4 1.358v-.691a.667.667 0 0 0-.666-.667H14a.667.667 0 0 0-.667.666v16.001c0 .368.298.666.666.667H19.333a.667.667 0 0 0 .667-.666V21.334a2 2 0 1 1 4 0v7.333c0 .368.298.666.666.667H30a.667.667 0 0 0 .667-.666V18.667A6.675 6.675 0 0 0 24 12zm5.333 16h-4v-6.667a3.333 3.333 0 1 0-6.666 0V28h-4V13.333h4v1.604c0 .283.179.536.447.629a.66.66 0 0 0 .741-.212 5.31 5.31 0 0 1 9.479 3.313V28zM7.824 2.669a3.525 3.525 0 0 0-.471-.002 3.654 3.654 0 0 0-3.901 3.638 3.613 3.613 0 0 0 3.825 3.638h.038a3.645 3.645 0 1 0 .509-7.273zm-.046 5.944a2.311 2.311 0 0 1-.463-.004h-.038a2.315 2.315 0 1 1 .075-4.61 2.316 2.316 0 1 1 .425 4.613z"/></symbol><symbol id="facebook-team" viewBox="0 0 32 32"><path d="M18.165 31.788a.705.705 0 0 1-.703-.702V20.688c0-.388.315-.703.703-.703h3.025l.365-2.847h-3.39a.703.703 0 0 1-.703-.703V13.72c0-1.19.29-2.773 2.799-2.773h1.537V8.481a33.114 33.114 0 0 0-2.561-.101c-2.967 0-4.738 1.838-4.738 4.918v3.136a.703.703 0 0 1-.703.703h-2.95v2.847h2.95c.388 0 .703.315.703.703v10.398c0 .204-.088.398-.243.531s-.359.193-.561.164C5.988 30.657.176 23.899.176 16.062.176 7.302 7.267.176 15.982.176s15.806 7.127 15.806 15.886c0 7.839-5.814 14.597-13.522 15.719a.686.686 0 0 1-.101.007zm.702-10.398v8.86c6.62-1.358 11.516-7.317 11.516-14.188 0-7.985-6.461-14.481-14.401-14.481S1.581 8.077 1.581 16.062c0 6.87 4.895 12.829 11.513 14.188v-8.86h-2.95a.703.703 0 0 1-.703-.703v-4.252c0-.388.315-.703.703-.703h2.95v-2.433c0-3.9 2.354-6.323 6.143-6.323 1.68 0 3.02.129 3.357.174a.702.702 0 0 1 .609.696v3.803a.702.702 0 0 1-.702.703l-2.24.001c-1.262 0-1.394.417-1.394 1.368v2.012h3.486a.704.704 0 0 1 .697.793l-.546 4.252a.703.703 0 0 1-.697.613h-2.94z"/></symbol></defs><symbol id="icon-arrow-first" viewBox="0 0 32 32"><path fill="#fff" style="fill:var(--color1,#fff)" opacity=".01" d="M0 0h32v32H0V0z"/><path fill="none" stroke="#000" style="stroke:var(--color2,#000)" stroke-linejoin="round" stroke-linecap="round" stroke-width="2.667" d="m22.667 24-8-8 8-8M9.333 8v16"/></symbol><symbol id="icon-arrow-last" viewBox="0 0 32 32"><path fill="#fff" style="fill:var(--color1,#fff)" opacity=".01" d="M0 0h32v32H0V0z"/><path fill="none" stroke="#000" style="stroke:var(--color2,#000)" stroke-linejoin="round" stroke-linecap="round" stroke-width="2.667" d="m9.333 8 8 8-8 8M22.667 8v16"/></symbol><symbol id="icon-dots" viewBox="0 0 32 32"><path fill="#FF6B08" d="M4.803 16a2.526 2.526 0 1 1-2.526-2.526A2.529 2.529 0 0 1 4.803 16zm24.421-2.526A2.526 2.526 0 1 0 31.75 16a2.529 2.529 0 0 0-2.526-2.526zm-13.474 0A2.526 2.526 0 1 0 18.276 16a2.529 2.529 0 0 0-2.526-2.526z"/></symbol></svg>