<svg aria-hidden="true" style="position: absolute; width: 0; height: 0; overflow: hidden;" version="1.1"
    xmlns="http://www.w3.org/2000/svg" xmlns:xlink="http://www.w3.org/1999/xlink">
    <defs>
        <symbol id="icon-logo" viewBox="0 0 32 32">
            <path fill="none" stroke="#fff" style="stroke: var(--color1, #fff)" stroke-linejoin="round"
                stroke-linecap="round" stroke-miterlimit="4" stroke-width="2.6667"
                d="M26.427 2.667h-20.853c-1.605 0-2.907 1.301-2.907 2.907v0 20.853c0 1.605 1.301 2.907 2.907 2.907v0h20.853c1.605 0 2.907-1.301 2.907-2.907v0-20.853c0-1.605-1.301-2.907-2.907-2.907v0zM9.333 2.667v26.667M22.667 2.667v26.667M2.667 16h26.667M2.667 9.333h6.667M2.667 22.667h6.667M22.667 22.667h6.667M22.667 9.333h6.667">
            </path>
        </symbol>
        <symbol id="icon-search" viewBox="0 0 32 32">
            <path fill="none" stroke="#fff" style="stroke: var(--color1, #fff)" stroke-linejoin="round"
                stroke-linecap="round" stroke-miterlimit="4" stroke-width="2.6667"
                d="M14.667 25.333c5.891 0 10.667-4.776 10.667-10.667s-4.776-10.667-10.667-10.667v0c-5.891 0-10.667 4.776-10.667 10.667s4.776 10.667 10.667 10.667v0zM28 28l-5.8-5.8">
            </path>
        </symbol>
        <symbol id="icon-cursor" viewBox="0 0 26 32">
            <path fill="#ff001b" style="fill: var(--color1, #ff001b)"
                d="M9.818 0c0.602 0 1.091 0.488 1.091 1.091v0 3.636c0 0.603-0.488 1.091-1.091 1.091s-1.091-0.488-1.091-1.091v0-3.636c0-0.603 0.488-1.091 1.091-1.091v0zM2.865 2.865c0.197-0.197 0.47-0.319 0.771-0.319s0.574 0.122 0.771 0.319v0l2.545 2.545c0.214 0.2 0.347 0.483 0.347 0.798 0 0.603-0.488 1.091-1.091 1.091-0.315 0-0.598-0.133-0.798-0.347l-0.001-0.001-2.545-2.545c-0.197-0.197-0.319-0.47-0.319-0.771s0.122-0.574 0.319-0.771v0zM16.771 2.865c0.197 0.197 0.319 0.47 0.319 0.771s-0.122 0.574-0.319 0.771v0l-2.545 2.545c-0.2 0.214-0.483 0.347-0.798 0.347-0.602 0-1.091-0.488-1.091-1.091 0-0.315 0.133-0.598 0.347-0.798l0.001-0.001 2.545-2.545c0.197-0.197 0.47-0.319 0.771-0.319s0.574 0.122 0.771 0.319v0zM0 9.818c0-0.602 0.488-1.091 1.091-1.091v0h3.636c0.603 0 1.091 0.488 1.091 1.091s-0.488 1.091-1.091 1.091v0h-3.636c-0.603 0-1.091-0.488-1.091-1.091v0zM11.892 9.434c-0.333-0.285-0.769-0.458-1.245-0.458-1.058 0-1.916 0.856-1.92 1.913v16.399c0.002 1.059 0.861 1.917 1.92 1.917 0.566 0 1.075-0.245 1.427-0.635l0.002-0.002 3.802-4.247c0.389-0.433 0.942-0.712 1.561-0.739l0.005-0 5.585-0.224c1.026-0.044 1.841-0.886 1.841-1.918 0-0.581-0.258-1.102-0.666-1.454l-0.002-0.002-12.305-10.545zM10.909 26.598v-15.136l11.363 9.745-4.916 0.195c-1.236 0.051-2.333 0.604-3.1 1.459l-0.004 0.004-3.343 3.732z">
            </path>
        </symbol>
        <symbol id="icon-heart" viewBox="0 0 32 32">
            <path fill="#FF6B08"
                d="M23.6 2c-3.363 0-6.258 2.736-7.599 5.594-1.342-2.858-4.237-5.594-7.601-5.594-4.637 0-8.4 3.764-8.4 8.401 0 9.433 9.516 11.906 16.001 21.232 6.13-9.268 15.999-12.1 15.999-21.232 0-4.637-3.763-8.401-8.4-8.401z">
            </path>
        </symbol>
        <symbol id="icon-list" viewBox="0 0 32 32">
            <path d="M0 0h8v8h-8zM12 2h20v4h-20zM0 12h8v8h-8zM12 14h20v4h-20zM0 24h8v8h-8zM12 26h20v4h-20z"></path>
        </symbol>
        <symbol id="icon-filter" viewBox="0 0 36 32">
            <path fill="none" stroke="#fff" style="stroke: var(--color1, #fff)" stroke-linejoin="round"
                stroke-linecap="round" stroke-miterlimit="4" stroke-width="2.0320"
                d="M33.841 5.397h-22.349M7.428 5.397h-6.095M33.841 25.715h-22.349M7.428 25.715h-6.095M23.683 15.555h-22.349M33.841 15.555h-6.096M9.46 1.333c0 0 0.001 0 0.001 0 1.122 0 2.032 0.91 2.032 2.032v0 4.061c0 1.122-0.91 2.032-2.032 2.032s-2.032-0.91-2.032-2.032v0-4.061c0-1.122 0.909-2.031 2.031-2.032h0zM9.46 21.651c1.122 0 2.032 0.91 2.032 2.032v0 4.063c0 1.122-0.91 2.032-2.032 2.032s-2.032-0.91-2.032-2.032v0-4.063c0-1.122 0.91-2.032 2.032-2.032v0zM25.713 11.492c1.122 0 2.032 0.91 2.032 2.032v0 4.063c0 0.015 0.001 0.034 0.001 0.052 0 1.122-0.91 2.032-2.032 2.032s-2.032-0.91-2.032-2.032c0-0.018 0-0.037 0.001-0.055l-0 0.003v-4.063c0-1.122 0.91-2.032 2.032-2.032v0 0z">
            </path>
        </symbol>

        <symbol id="icon-close" viewBox="0 0 32 32">
            <path
                d="M23.733 10.304l-1.504-1.504-5.963 5.963-5.963-5.963-1.504 1.504 5.963 5.963-5.963 5.963 1.504 1.504 5.963-5.963 5.963 5.963 1.504-1.504-5.963-5.963 5.963-5.963z">
            </path>
        </symbol>
        <symbol id="up" viewBox="0 0 32 32">
            <path style="fill: currentColor"
                d="M0 16c0 8.837 7.163 16 16 16s16-7.163 16-16-7.163-16-16-16-16 7.163-16 16zM29 16c0 7.18-5.82 13-13 13s-13-5.82-13-13 5.82-13 13-13 13 5.82 13 13z">
            </path>
            <path style="fill: currentColor"
                d="M22.086 20.914l2.829-2.829-8.914-8.914-8.914 8.914 2.828 2.828 6.086-6.086z"></path>
        </symbol>

        <symbol id="email-team" viewBox="0 0 32 32">
            <path
                d="M26.71 26.66h-21.42c-2.346-0.003-4.247-1.904-4.25-4.25v-12.82c0.003-2.346 1.904-4.247 4.25-4.25h21.42c2.346 0.003 4.247 1.904 4.25 4.25v12.82c-0.003 2.346-1.904 4.247-4.25 4.25h-0zM5.29 6.84c-1.519 0-2.75 1.231-2.75 2.75v0 12.82c0 1.519 1.231 2.75 2.75 2.75v0h21.42c1.519 0 2.75-1.231 2.75-2.75v0-12.82c0-1.519-1.231-2.75-2.75-2.75v0z">
            </path>
            <path
                d="M16 19.040c-0.002 0-0.004 0-0.007 0-0.965 0-1.855-0.321-2.569-0.863l0.011 0.008-11.675-8.83c-0.194-0.137-0.319-0.361-0.319-0.614 0-0.414 0.336-0.75 0.75-0.75 0.18 0 0.346 0.064 0.475 0.17l-0.001-0.001 11.675 8.84c0.457 0.344 1.034 0.551 1.66 0.551s1.203-0.207 1.667-0.556l-0.007 0.005 11.675-8.84c0.128-0.105 0.294-0.169 0.474-0.169 0.414 0 0.75 0.336 0.75 0.75 0 0.253-0.125 0.476-0.317 0.612l-0.002 0.002-11.675 8.83c-0.703 0.534-1.593 0.855-2.558 0.855-0.002 0-0.005 0-0.007 0h0z">
            </path>
            <path
                d="M2.085 24.57c-0 0-0.001 0-0.001 0-0.414 0-0.75-0.336-0.75-0.75 0-0.222 0.097-0.422 0.25-0.559l0.001-0.001 9.2-8.205c0.132-0.118 0.308-0.191 0.5-0.191 0.415 0 0.751 0.336 0.751 0.751 0 0.222-0.097 0.422-0.25 0.559l-0.001 0.001-9.2 8.205c-0.129 0.118-0.302 0.19-0.491 0.19-0.003 0-0.006-0-0.009-0h0zM29.915 24.57c-0.003 0-0.006 0-0.009 0-0.189 0-0.362-0.072-0.492-0.191l0.001 0-9.2-8.205c-0.154-0.138-0.251-0.338-0.251-0.56 0-0.415 0.336-0.751 0.751-0.751 0.192 0 0.368 0.072 0.501 0.191l-0.001-0.001 9.195 8.205c0.154 0.138 0.251 0.338 0.251 0.56 0 0.414-0.336 0.75-0.75 0.75-0 0-0.001 0-0.001 0h0z">
            </path>
        </symbol>
        <symbol id="git-team" viewBox="0 0 33 32">
            <path
                d="M15.383 0.057c-1.457 0.113-2.39 0.277-3.577 0.617-2.25 0.643-4.307 1.757-6.127 3.317-0.507 0.43-1.47 1.41-1.9 1.927-2.133 2.577-3.37 5.563-3.72 8.983-0.057 0.547-0.057 2.353 0 2.917 0.353 3.573 1.717 6.733 4.043 9.367 0.403 0.46 1.277 1.313 1.713 1.68 1.437 1.197 3.027 2.137 4.7 2.77 0.857 0.323 0.817 0.313 1.383 0.313 0.473 0 0.54-0.007 0.783-0.090 0.367-0.12 0.653-0.3 0.913-0.56 0.263-0.263 0.44-0.55 0.563-0.913l0.090-0.267 0.017-2.617c0.020-2.86 0.013-2.733 0.217-3.133 0.11-0.21 0.17-0.273 1.027-1.050 0.683-0.617 0.77-0.683 0.817-0.64 0.033 0.027 0.42 0.357 0.863 0.737 0.827 0.703 0.937 0.813 1.027 1.030 0.167 0.397 0.163 0.347 0.183 3.040 0.023 2.84 0.013 2.72 0.273 3.25 0.207 0.413 0.567 0.77 0.997 0.977 0.42 0.203 0.76 0.273 1.237 0.247 0.31-0.017 0.42-0.040 0.807-0.17 3.303-1.12 6.333-3.497 8.293-6.503 1.473-2.26 2.317-4.693 2.6-7.517 0.053-0.533 0.053-2.25 0-2.817-0.2-2.073-0.72-3.95-1.59-5.733-0.793-1.627-1.737-2.96-3.013-4.263-0.913-0.927-1.66-1.55-2.653-2.203-2.41-1.59-5.010-2.473-7.9-2.683-0.423-0.030-1.737-0.037-2.067-0.010zM18.067 1.713c2.9 0.363 5.46 1.47 7.733 3.347 0.493 0.41 1.43 1.347 1.853 1.857 1.983 2.393 3.137 5.24 3.38 8.33 0.043 0.553 0.043 1.69 0 2.24-0.377 4.783-3.003 9.027-7.133 11.53-0.737 0.447-1.817 0.957-2.603 1.233-0.303 0.107-0.38 0.12-0.6 0.11-0.303-0.013-0.487-0.113-0.603-0.337l-0.077-0.14-0.020-2.5c-0.017-2.363-0.023-2.517-0.087-2.8-0.087-0.377-0.187-0.67-0.317-0.93-0.11-0.22-0.43-0.663-0.533-0.733-0.060-0.043-0.050-0.050 0.113-0.070 4.017-0.497 5.993-2.26 6.483-5.783 0.043-0.313 0.057-0.647 0.057-1.333 0-0.87-0.003-0.937-0.087-1.337-0.21-0.977-0.587-1.763-1.2-2.52l-0.197-0.243 0.083-0.257c0.153-0.493 0.197-0.883 0.177-1.587-0.020-0.69-0.067-0.987-0.257-1.6-0.143-0.46-0.157-0.48-0.383-0.507-0.677-0.087-2.213 0.517-3.597 1.407l-0.227 0.147-0.49-0.117c-2.15-0.51-4.317-0.503-6.473 0.017l-0.42 0.1-0.313-0.193c-1.397-0.87-2.57-1.347-3.357-1.357-0.413-0.003-0.397-0.017-0.543 0.457-0.36 1.15-0.377 2.363-0.050 3.33l0.053 0.157-0.223 0.277c-0.6 0.747-0.99 1.573-1.183 2.53-0.070 0.347-0.077 0.463-0.073 1.33 0 0.81 0.013 1.020 0.077 1.433 0.15 0.973 0.323 1.547 0.687 2.283 0.557 1.12 1.337 1.893 2.5 2.473 0.863 0.433 1.777 0.687 3.14 0.88l0.277 0.037-0.177 0.193c-0.33 0.367-0.583 0.907-0.707 1.517-0.030 0.147-0.070 0.277-0.093 0.29s-0.197 0.077-0.39 0.14c-0.913 0.303-1.81 0.283-2.477-0.053-0.54-0.27-0.9-0.62-1.363-1.33-0.497-0.753-0.96-1.133-1.7-1.39-0.293-0.103-0.39-0.12-0.643-0.12-0.44-0.003-0.583 0.053-0.583 0.24 0 0.18 0.33 0.517 0.733 0.747 0.083 0.050 0.27 0.21 0.41 0.36 0.397 0.413 0.747 0.977 1.040 1.683 0.087 0.203 0.19 0.427 0.233 0.503 0.417 0.713 1.237 1.173 2.373 1.333 0.47 0.067 1.617 0.047 2.077-0.037 0.157-0.027 0.287-0.050 0.293-0.050 0.003 0 0.007 0.66 0.007 1.467 0 1.58-0.003 1.607-0.177 1.797-0.21 0.227-0.617 0.267-1.067 0.107-3.873-1.373-7.040-4.343-8.65-8.12-0.623-1.46-1-3-1.14-4.633-0.043-0.517-0.043-1.72 0-2.27 0.257-3.26 1.52-6.227 3.703-8.7 2.39-2.703 5.897-4.5 9.447-4.843 0.203-0.020 0.413-0.043 0.467-0.050 0.057-0.007 0.61-0.010 1.233-0.003 0.81 0.007 1.26 0.023 1.583 0.063zM10.373 9.767c0.563 0.28 0.977 0.52 1.553 0.907l0.443 0.297 0.473-0.133c1.353-0.383 2.483-0.53 3.807-0.493 1.093 0.030 1.943 0.16 3.107 0.477l0.543 0.147 0.523-0.347c0.813-0.537 2.003-1.17 2.070-1.103 0.013 0.013 0.023 0.22 0.023 0.46-0.003 0.553-0.053 0.787-0.33 1.477l-0.213 0.527 0.403 0.437c0.507 0.547 0.753 0.88 0.94 1.263 0.317 0.653 0.417 1.143 0.417 2.020 0 1.273-0.193 2.26-0.607 3.080-0.197 0.39-0.37 0.633-0.673 0.95-0.613 0.633-1.357 1.017-2.537 1.307-0.503 0.123-1.207 0.223-2.763 0.397l-1.227 0.137-1.39-0.153c-1.913-0.21-2.43-0.3-3.22-0.55-2.173-0.693-3.18-2.32-3.19-5.15-0.007-0.893 0.123-1.48 0.46-2.113 0.21-0.4 0.38-0.623 0.86-1.143 0.23-0.25 0.42-0.47 0.42-0.49 0-0.017-0.097-0.277-0.217-0.577-0.137-0.35-0.233-0.65-0.267-0.84-0.050-0.293-0.070-0.9-0.030-1 0.027-0.073 0.070-0.057 0.62 0.213z">
            </path>
        </symbol>
        <symbol id="linkedin-team" viewBox="0 0 32 32">
            <path
                d="M10.001 12c-0 0-0.001 0-0.001 0h-5.333c-0.368-0-0.666 0.298-0.667 0.666 0 0 0 0.001 0 0.001v16c-0 0.368 0.298 0.666 0.666 0.667 0 0 0.001 0 0.001 0h5.333c0.368 0 0.666-0.298 0.667-0.666 0-0 0-0 0-0.001v-16c0-0.368-0.298-0.666-0.666-0.667zM9.333 28h-4v-14.667h4v14.667zM24 12c-1.446 0-2.852 0.477-4 1.358v-0.691c0-0.368-0.298-0.666-0.666-0.667-0 0-0.001 0-0.001 0h-5.333c-0.368-0-0.666 0.298-0.667 0.666 0 0 0 0.001 0 0.001v16c-0 0.368 0.298 0.666 0.666 0.667 0 0 0.001 0 0.001 0h5.333c0.368 0 0.666-0.298 0.667-0.666 0-0 0-0 0-0.001v-7.333c0-1.105 0.895-2 2-2s2 0.895 2 2v7.333c-0 0.368 0.298 0.666 0.666 0.667 0 0 0 0 0.001 0h5.333c0.368 0 0.666-0.298 0.667-0.666 0-0 0-0 0-0.001v-10c-0.004-3.68-2.987-6.662-6.667-6.667zM29.333 28h-4v-6.667c0-1.841-1.492-3.333-3.333-3.333s-3.333 1.492-3.333 3.333v6.667h-4v-14.667h4v1.604c0 0.283 0.179 0.536 0.447 0.629 0.267 0.096 0.565 0.011 0.741-0.212 1.817-2.302 5.156-2.696 7.458-0.879 1.282 1.012 2.028 2.558 2.021 4.192v9.333zM7.824 2.669c-0.157-0.011-0.314-0.012-0.471-0.002-2.012-0.137-3.755 1.383-3.893 3.395-0.006 0.081-0.008 0.162-0.008 0.243-0.017 1.995 1.586 3.627 3.581 3.644 0.081 0.001 0.163-0.001 0.244-0.006h0.038c2.009 0.141 3.751-1.374 3.891-3.382s-1.374-3.751-3.382-3.891zM7.778 8.613c-0.154 0.014-0.309 0.013-0.463-0.004h-0.038c-1.275 0.098-2.388-0.856-2.486-2.131s0.856-2.388 2.131-2.486c0.143-0.011 0.287-0.009 0.43 0.007 1.274-0.117 2.402 0.82 2.519 2.094s-0.82 2.402-2.094 2.519z">
            </path>
        </symbol>
        <symbol id="facebook-team" viewBox="0 0 32 32">
            <path
                d="M18.165 31.788c-0.168 0-0.331-0.060-0.46-0.171-0.154-0.133-0.243-0.327-0.243-0.531v-10.398c0-0.388 0.315-0.703 0.703-0.703h3.025l0.365-2.847h-3.39c-0.388 0-0.703-0.315-0.703-0.703v-2.715c0-1.19 0.29-2.773 2.799-2.773l1.537-0v-2.466c-0.609-0.049-1.54-0.101-2.561-0.101-2.967 0-4.738 1.838-4.738 4.918v3.136c0 0.388-0.315 0.703-0.703 0.703h-2.95v2.847h2.95c0.388 0 0.703 0.315 0.703 0.703v10.398c0 0.204-0.088 0.398-0.243 0.531s-0.359 0.193-0.561 0.164c-7.707-1.123-13.519-7.881-13.519-15.718 0-8.76 7.091-15.886 15.806-15.886s15.806 7.127 15.806 15.886c0 7.839-5.814 14.597-13.522 15.719-0.034 0.005-0.067 0.007-0.101 0.007zM18.867 21.39v8.86c6.62-1.358 11.516-7.317 11.516-14.188 0-7.985-6.461-14.481-14.401-14.481s-14.401 6.496-14.401 14.481c0 6.87 4.895 12.829 11.513 14.188v-8.86h-2.95c-0.388 0-0.703-0.315-0.703-0.703v-4.252c0-0.388 0.315-0.703 0.703-0.703h2.95v-2.433c0-3.9 2.354-6.323 6.143-6.323 1.68 0 3.020 0.129 3.357 0.174 0.349 0.047 0.609 0.344 0.609 0.696v3.803c0 0.388-0.314 0.703-0.702 0.703l-2.24 0.001c-1.262 0-1.394 0.417-1.394 1.368v2.012h3.486c0.202 0 0.394 0.087 0.528 0.239s0.195 0.353 0.169 0.554l-0.546 4.252c-0.045 0.351-0.344 0.613-0.697 0.613h-2.94z">
            </path>
        </symbol>

        <svg width="10" height="3" fill="none" xmlns="http://www.w3.org/2000/svg">
            <path
                d="M1.617.5c.266 0 .47.076.615.229a.773.773 0 0 1 .217.562.766.766 0 0 1-.217.557c-.144.144-.35.216-.615.216-.254 0-.455-.072-.603-.216A.743.743 0 0 1 .79 1.29c0-.227.072-.414.217-.562.144-.153.347-.229.61-.229ZM4.97.5c.265 0 .47.076.615.229a.773.773 0 0 1 .217.562.766.766 0 0 1-.217.557c-.145.144-.35.216-.615.216-.254 0-.455-.072-.604-.216a.743.743 0 0 1-.222-.557c0-.227.072-.414.216-.562C4.504.576 4.707.5 4.97.5ZM8.32.5c.266 0 .471.076.616.229a.773.773 0 0 1 .216.562.766.766 0 0 1-.216.557c-.145.144-.35.216-.616.216-.254 0-.455-.072-.603-.216a.743.743 0 0 1-.223-.557c0-.227.072-.414.217-.562C7.855.576 8.059.5 8.32.5Z"
                fill="#000" />
        </svg>
        <svg width="16" height="16" fill="none" xmlns="http://www.w3.org/2000/svg">
            <path d="M12.667 8H3.333M8 12.667 3.333 8 8 3.333" stroke="#000" stroke-width="1.333" stroke-linecap="round"
                stroke-linejoin="round" />
        </svg>
        <svg width="16" height="16" fill="none" xmlns="http://www.w3.org/2000/svg">
            <path d="M3.333 8h9.334M8 12.667 12.667 8 8 3.333" stroke="#000" stroke-width="1.333" stroke-linecap="round"
                stroke-linejoin="round" />
        </svg>
    </defs>
    <symbol id="icon-arrow-first" viewBox="0 0 32 32">
        <path fill="#fff" style="fill: var(--color1, #fff)" opacity="0.01" d="M0 0h32v32h-32v-32z"></path>
        <path fill="none" stroke="#000" style="stroke: var(--color2, #000)" stroke-linejoin="round"
            stroke-linecap="round" stroke-miterlimit="4" stroke-width="2.6667" d="M22.667 24l-8-8 8-8"></path>
        <path fill="none" stroke="#000" style="stroke: var(--color2, #000)" stroke-linejoin="round"
            stroke-linecap="round" stroke-miterlimit="4" stroke-width="2.6667" d="M9.333 8v16"></path>
    </symbol>
    <symbol id="icon-arrow-last" viewBox="0 0 32 32">
        <path fill="#fff" style="fill: var(--color1, #fff)" opacity="0.01" d="M0 0h32v32h-32v-32z"></path>
        <path fill="none" stroke="#000" style="stroke: var(--color2, #000)" stroke-linejoin="round"
            stroke-linecap="round" stroke-miterlimit="4" stroke-width="2.6667" d="M9.333 8l8 8-8 8"></path>
        <path fill="none" stroke="#000" style="stroke: var(--color2, #000)" stroke-linejoin="round"
            stroke-linecap="round" stroke-miterlimit="4" stroke-width="2.6667" d="M22.667 8v16"></path>
    </symbol>
    <symbol id="icon-dots" viewBox="0 0 32 32">
        <path fill="#FF6B08"
            d="M4.803 16c0 1.395-1.131 2.526-2.526 2.526s-2.526-1.131-2.526-2.526c0-1.395 1.131-2.526 2.526-2.526v0c1.395 0.002 2.525 1.132 2.526 2.526v0zM29.224 13.474c-1.395 0-2.526 1.131-2.526 2.526s1.131 2.526 2.526 2.526c1.395 0 2.526-1.131 2.526-2.526v0c-0.002-1.395-1.132-2.525-2.526-2.526h-0zM15.75 13.474c-1.395 0-2.526 1.131-2.526 2.526s1.131 2.526 2.526 2.526c1.395 0 2.526-1.131 2.526-2.526v0c-0.002-1.395-1.132-2.525-2.526-2.526h-0z">
        </path>
    </symbol>
</svg>