<svg aria-hidden="true" style="position: absolute; width: 0; height: 0; overflow: hidden;" version="1.1"
    xmlns="http://www.w3.org/2000/svg" xmlns:xlink="http://www.w3.org/1999/xlink">
    <defs>
        <symbol id="icon-logo" viewBox="0 0 32 32">
            <path fill="none" stroke="#fff" style="stroke: var(--color1, #fff)" stroke-linejoin="round"
                stroke-linecap="round" stroke-miterlimit="4" stroke-width="2.6667"
                d="M26.427 2.667h-20.853c-1.605 0-2.907 1.301-2.907 2.907v0 20.853c0 1.605 1.301 2.907 2.907 2.907v0h20.853c1.605 0 2.907-1.301 2.907-2.907v0-20.853c0-1.605-1.301-2.907-2.907-2.907v0zM9.333 2.667v26.667M22.667 2.667v26.667M2.667 16h26.667M2.667 9.333h6.667M2.667 22.667h6.667M22.667 22.667h6.667M22.667 9.333h6.667">
            </path>
        </symbol>
        <symbol id="icon-search" viewBox="0 0 32 32">
            <path fill="none" stroke="#fff" style="stroke: var(--color1, #fff)" stroke-linejoin="round"
                stroke-linecap="round" stroke-miterlimit="4" stroke-width="2.6667"
                d="M14.667 25.333c5.891 0 10.667-4.776 10.667-10.667s-4.776-10.667-10.667-10.667v0c-5.891 0-10.667 4.776-10.667 10.667s4.776 10.667 10.667 10.667v0zM28 28l-5.8-5.8">
            </path>
        </symbol>
        <symbol id="icon-cursor" viewBox="0 0 26 32">
            <path fill="#ff001b" style="fill: var(--color1, #ff001b)"
                d="M9.818 0c0.602 0 1.091 0.488 1.091 1.091v0 3.636c0 0.603-0.488 1.091-1.091 1.091s-1.091-0.488-1.091-1.091v0-3.636c0-0.603 0.488-1.091 1.091-1.091v0zM2.865 2.865c0.197-0.197 0.47-0.319 0.771-0.319s0.574 0.122 0.771 0.319v0l2.545 2.545c0.214 0.2 0.347 0.483 0.347 0.798 0 0.603-0.488 1.091-1.091 1.091-0.315 0-0.598-0.133-0.798-0.347l-0.001-0.001-2.545-2.545c-0.197-0.197-0.319-0.47-0.319-0.771s0.122-0.574 0.319-0.771v0zM16.771 2.865c0.197 0.197 0.319 0.47 0.319 0.771s-0.122 0.574-0.319 0.771v0l-2.545 2.545c-0.2 0.214-0.483 0.347-0.798 0.347-0.602 0-1.091-0.488-1.091-1.091 0-0.315 0.133-0.598 0.347-0.798l0.001-0.001 2.545-2.545c0.197-0.197 0.47-0.319 0.771-0.319s0.574 0.122 0.771 0.319v0zM0 9.818c0-0.602 0.488-1.091 1.091-1.091v0h3.636c0.603 0 1.091 0.488 1.091 1.091s-0.488 1.091-1.091 1.091v0h-3.636c-0.603 0-1.091-0.488-1.091-1.091v0zM11.892 9.434c-0.333-0.285-0.769-0.458-1.245-0.458-1.058 0-1.916 0.856-1.92 1.913v16.399c0.002 1.059 0.861 1.917 1.92 1.917 0.566 0 1.075-0.245 1.427-0.635l0.002-0.002 3.802-4.247c0.389-0.433 0.942-0.712 1.561-0.739l0.005-0 5.585-0.224c1.026-0.044 1.841-0.886 1.841-1.918 0-0.581-0.258-1.102-0.666-1.454l-0.002-0.002-12.305-10.545zM10.909 26.598v-15.136l11.363 9.745-4.916 0.195c-1.236 0.051-2.333 0.604-3.1 1.459l-0.004 0.004-3.343 3.732z">
            </path>
        </symbol>
        <symbol id="icon-heart" viewBox="0 0 32 32">
            <path fill="#FF6B08"
                d="M23.6 2c-3.363 0-6.258 2.736-7.599 5.594-1.342-2.858-4.237-5.594-7.601-5.594-4.637 0-8.4 3.764-8.4 8.401 0 9.433 9.516 11.906 16.001 21.232 6.13-9.268 15.999-12.1 15.999-21.232 0-4.637-3.763-8.401-8.4-8.401z">
            </path>
        </symbol>
        <symbol id="icon-close" viewBox="0 0 32 32">
            <path
                d="M23.733 10.304l-1.504-1.504-5.963 5.963-5.963-5.963-1.504 1.504 5.963 5.963-5.963 5.963 1.504 1.504 5.963-5.963 5.963 5.963 1.504-1.504-5.963-5.963 5.963-5.963z">
            </path>
        </symbol>
        <symbol id="up" viewBox="0 0 32 32">
            <path style="fill: currentColor"
                d="M0 16c0 8.837 7.163 16 16 16s16-7.163 16-16-7.163-16-16-16-16 7.163-16 16zM29 16c0 7.18-5.82 13-13 13s-13-5.82-13-13 5.82-13 13-13 13 5.82 13 13z">
            </path>
            <path style="fill: currentColor"
                d="M22.086 20.914l2.829-2.829-8.914-8.914-8.914 8.914 2.828 2.828 6.086-6.086z"></path>
        </symbol>

    </defs>
</svg>